<mxfile host="app.diagrams.net" agent="Mozilla/5.0 (Windows NT 10.0; Win64; x64) AppleWebKit/537.36 (KHTML, like Gecko) Chrome/130.0.0.0 Safari/537.36 Edg/130.0.0.0" version="24.8.2">
  <diagram name="Page-1" id="fAt-1F2SIkkt4V6hU276">
    <mxGraphModel dx="786" dy="457" grid="1" gridSize="10" guides="1" tooltips="1" connect="1" arrows="1" fold="1" page="1" pageScale="1" pageWidth="850" pageHeight="1100" math="0" shadow="0">
      <root>
        <mxCell id="0" />
        <mxCell id="1" parent="0" />
        <mxCell id="R1dYsNhMfFEGVlM8djGf-8" style="edgeStyle=orthogonalEdgeStyle;rounded=0;orthogonalLoop=1;jettySize=auto;html=1;exitX=0.5;exitY=1;exitDx=0;exitDy=0;" edge="1" parent="1" source="R1dYsNhMfFEGVlM8djGf-1" target="R1dYsNhMfFEGVlM8djGf-3">
          <mxGeometry relative="1" as="geometry" />
        </mxCell>
        <mxCell id="R1dYsNhMfFEGVlM8djGf-14" style="edgeStyle=orthogonalEdgeStyle;rounded=0;orthogonalLoop=1;jettySize=auto;html=1;exitX=1;exitY=0.5;exitDx=0;exitDy=0;entryX=1;entryY=0.5;entryDx=0;entryDy=0;" edge="1" parent="1" source="R1dYsNhMfFEGVlM8djGf-1" target="R1dYsNhMfFEGVlM8djGf-5">
          <mxGeometry relative="1" as="geometry">
            <Array as="points">
              <mxPoint x="540" y="60" />
              <mxPoint x="540" y="300" />
            </Array>
          </mxGeometry>
        </mxCell>
        <mxCell id="R1dYsNhMfFEGVlM8djGf-1" value="start" style="ellipse;whiteSpace=wrap;html=1;" vertex="1" parent="1">
          <mxGeometry x="270" y="20" width="120" height="80" as="geometry" />
        </mxCell>
        <mxCell id="R1dYsNhMfFEGVlM8djGf-9" style="edgeStyle=orthogonalEdgeStyle;rounded=0;orthogonalLoop=1;jettySize=auto;html=1;exitX=0.5;exitY=1;exitDx=0;exitDy=0;entryX=0.5;entryY=0;entryDx=0;entryDy=0;" edge="1" parent="1" source="R1dYsNhMfFEGVlM8djGf-3" target="R1dYsNhMfFEGVlM8djGf-5">
          <mxGeometry relative="1" as="geometry" />
        </mxCell>
        <mxCell id="R1dYsNhMfFEGVlM8djGf-3" value="enter current password" style="rounded=0;whiteSpace=wrap;html=1;" vertex="1" parent="1">
          <mxGeometry x="270" y="170" width="120" height="60" as="geometry" />
        </mxCell>
        <mxCell id="R1dYsNhMfFEGVlM8djGf-12" style="edgeStyle=orthogonalEdgeStyle;rounded=0;orthogonalLoop=1;jettySize=auto;html=1;exitX=0.5;exitY=1;exitDx=0;exitDy=0;entryX=0.5;entryY=0;entryDx=0;entryDy=0;" edge="1" parent="1" source="R1dYsNhMfFEGVlM8djGf-4" target="R1dYsNhMfFEGVlM8djGf-6">
          <mxGeometry relative="1" as="geometry" />
        </mxCell>
        <mxCell id="R1dYsNhMfFEGVlM8djGf-15" style="edgeStyle=orthogonalEdgeStyle;rounded=0;orthogonalLoop=1;jettySize=auto;html=1;exitX=1;exitY=0.5;exitDx=0;exitDy=0;entryX=1;entryY=0.5;entryDx=0;entryDy=0;" edge="1" parent="1" source="R1dYsNhMfFEGVlM8djGf-4" target="R1dYsNhMfFEGVlM8djGf-6">
          <mxGeometry relative="1" as="geometry">
            <Array as="points">
              <mxPoint x="500" y="400" />
              <mxPoint x="500" y="520" />
            </Array>
          </mxGeometry>
        </mxCell>
        <mxCell id="R1dYsNhMfFEGVlM8djGf-4" value="enter new and confirm password" style="rounded=0;whiteSpace=wrap;html=1;" vertex="1" parent="1">
          <mxGeometry x="270" y="370" width="120" height="60" as="geometry" />
        </mxCell>
        <mxCell id="R1dYsNhMfFEGVlM8djGf-11" style="edgeStyle=orthogonalEdgeStyle;rounded=0;orthogonalLoop=1;jettySize=auto;html=1;exitX=0.5;exitY=1;exitDx=0;exitDy=0;" edge="1" parent="1" source="R1dYsNhMfFEGVlM8djGf-5" target="R1dYsNhMfFEGVlM8djGf-4">
          <mxGeometry relative="1" as="geometry" />
        </mxCell>
        <mxCell id="R1dYsNhMfFEGVlM8djGf-5" value="valid" style="rhombus;whiteSpace=wrap;html=1;" vertex="1" parent="1">
          <mxGeometry x="290" y="260" width="80" height="80" as="geometry" />
        </mxCell>
        <mxCell id="R1dYsNhMfFEGVlM8djGf-13" style="edgeStyle=orthogonalEdgeStyle;rounded=0;orthogonalLoop=1;jettySize=auto;html=1;exitX=0.5;exitY=1;exitDx=0;exitDy=0;" edge="1" parent="1" source="R1dYsNhMfFEGVlM8djGf-6" target="R1dYsNhMfFEGVlM8djGf-7">
          <mxGeometry relative="1" as="geometry" />
        </mxCell>
        <mxCell id="R1dYsNhMfFEGVlM8djGf-6" value="valid?" style="rhombus;whiteSpace=wrap;html=1;" vertex="1" parent="1">
          <mxGeometry x="290" y="480" width="80" height="80" as="geometry" />
        </mxCell>
        <mxCell id="R1dYsNhMfFEGVlM8djGf-7" value="updated" style="rounded=0;whiteSpace=wrap;html=1;" vertex="1" parent="1">
          <mxGeometry x="270" y="600" width="120" height="60" as="geometry" />
        </mxCell>
        <mxCell id="R1dYsNhMfFEGVlM8djGf-16" value="No" style="text;html=1;align=center;verticalAlign=middle;whiteSpace=wrap;rounded=0;" vertex="1" parent="1">
          <mxGeometry x="370" y="270" width="60" height="30" as="geometry" />
        </mxCell>
        <mxCell id="R1dYsNhMfFEGVlM8djGf-17" value="No" style="text;html=1;align=center;verticalAlign=middle;whiteSpace=wrap;rounded=0;" vertex="1" parent="1">
          <mxGeometry x="365" y="490" width="60" height="30" as="geometry" />
        </mxCell>
        <mxCell id="R1dYsNhMfFEGVlM8djGf-18" value="Yes" style="text;html=1;align=center;verticalAlign=middle;whiteSpace=wrap;rounded=0;" vertex="1" parent="1">
          <mxGeometry x="230" y="505" width="60" height="30" as="geometry" />
        </mxCell>
        <mxCell id="R1dYsNhMfFEGVlM8djGf-19" value="Text" style="text;html=1;align=center;verticalAlign=middle;whiteSpace=wrap;rounded=0;" vertex="1" parent="1">
          <mxGeometry x="370" y="390" width="60" height="30" as="geometry" />
        </mxCell>
        <mxCell id="R1dYsNhMfFEGVlM8djGf-20" value="yes" style="text;html=1;align=center;verticalAlign=middle;whiteSpace=wrap;rounded=0;" vertex="1" parent="1">
          <mxGeometry x="230" y="285" width="60" height="30" as="geometry" />
        </mxCell>
      </root>
    </mxGraphModel>
  </diagram>
</mxfile>
